
<global>
amp_veltrack=0
ampeg_release=0.35
</global>

<group>
group_label=Group_0-42
lpc_hicc1=42
lpc_locc1=0

<region>
hikey=a3
hivel=127
lokey=g#3
lovel=1
lpc=6RuaQRbZU8J4gIFCkf0ywtXkmUEbnhbB1CQwQXgzNMESEd5ALjwiwIr0uL//RTxAcnASwE5XDUCENK6+cw5uwL8NrED7okLAqamFP0PEjT6t/SPAYDK1QF/JpcD+4QRA
lpc_rms=-28.27
offset=576
pitch_keycenter=a3
sample=Violin2Solo_tenuto_eighth_PP_A3.opus
</region>

<region>
hikey=a4
hivel=127
lokey=g#4
lovel=1
lpc=qtyEQYQ1QcJg+31C765QwnRZCEJTKrPBbGFpQXtKLcGhwyhBElIfwbAu80AnmYXAVA5EQDJDnMAZRPNAj9oNweOrDUGdHQDBOf+5QE8PGcAuD5Q+KAYDv0kRMD8Kx+O8
lpc_rms=-23.87
offset=503
pitch_keycenter=a4
sample=Violin2Solo_tenuto_eighth_PP_A4.opus
</region>

<region>
hikey=a5
hivel=127
lokey=g#5
lovel=1
lpc=92QyQdx+d8GGAJZBypRnwQLSUEH7wdrAf8HcQIpDAsBsetE/6ZipP7lbRT/Tdw1AXuNjPySHQT+hNoc+EJ5GQPQ8sr+MA7ZA+UuXwPMV5UB+FLbAU9oHQQFln8Af4a1A
lpc_rms=-21.84
offset=1020
pitch_keycenter=a5
sample=Violin2Solo_tenuto_eighth_PP_A5.opus
</region>

<region>
hikey=a6
hivel=127
lokey=g#6
lovel=1
lpc=C/GDQT39P8EbejVBgRTKP/huJkBWqIm/WVZfQAVdY0DmiF7ArhshQHgNyUCLGgzAswK4QLPcIsHRwDzAD/jwQCnIQMEcSFRAKWEYwLrEHUDcN5nAXJyxP9cmgECrwrrA
lpc_rms=-23.15
offset=691
pitch_keycenter=a6
sample=Violin2Solo_tenuto_eighth_PP_A6.opus
</region>

<region>
hikey=b3
hivel=127
lokey=a#3
lovel=1
lpc=q3LsQe+iqcIy58tCPcSCwj5zqkFYkAvBs1aCQYA1ksGcIlNB4fH1wBtnnUAKKuXAf7l4QQkVp8Fyb5hBp4iNwXcQlkFy/mLBo/ZDQLHYl0CGMbXAIMOXPxKV2z8Axea+
lpc_rms=-26.01
offset=2
pitch_keycenter=b3
sample=Violin2Solo_tenuto_eighth_PP_B3.opus
</region>

<region>
hikey=b4
hivel=127
lokey=a#4
lovel=1
lpc=ECwSQQoRt8HPzMpBZr6ZwdLGbUHLDTLBsDDdQO60r8AyGZxAA84OwC7cBUAIBGHAM04aQLoSsr/XpuE/hlGsv8hMQT/MCjS/W48mPxt3lT8jm4jAoIXLQI3YpcBokfQ/
lpc_rms=-27.95
offset=3627
pitch_keycenter=b4
sample=Violin2Solo_tenuto_eighth_PP_B4.opus
</region>

<region>
hikey=b5
hivel=127
lokey=a#5
lovel=1
lpc=0H1OQYskVcEQbG9BjvcrwcvzL0GNkMXAEBzIQOu4Fb82w86+LzevQHjhlcBbS/pAA4KrwLIH7UD8PnDA6iqOQDSfGz+dYJ2/5vbMQNRnucBU8BlBNTIAwcLmMUFkGO/A
lpc_rms=-23.65
offset=1092
pitch_keycenter=b5
sample=Violin2Solo_tenuto_eighth_PP_B5.opus
</region>

<region>
hikey=b6
hivel=127
lokey=a#6
lovel=1
lpc=o96yQVgyk8HML2xBMx85wOH++D/v36m90x8hQSAV2cDbMcRAYq5kQF2pqT/mzWrAKv+rwXNRh0F19TbBE9jLP04K1L42IwA/ynIPwRsC2UAZJabAt/X4v+D9JsA7HMNA
lpc_rms=-24.45
offset=266
pitch_keycenter=b6
sample=Violin2Solo_tenuto_eighth_PP_B6.opus
</region>

<region>
hikey=c#4
hivel=127
lokey=c4
lovel=1
lpc=yKGoQk5ddsMp049DK7Enw98WP0K+lPTBSnpkQodiZMJ/qRBCCASGweHVxUBSUonAKBB5Qb+ah8G/5Z5BBK4awl/8RUJW3+/BgL1PwCHdhUHO2KPB20TJQWPMxcEWNDZB
lpc_rms=-20.76
offset=174
pitch_keycenter=c#4
sample=Violin2Solo_tenuto_eighth_PP_C#4.opus
</region>

<region>
hikey=c#5
hivel=127
lokey=c5
lovel=1
lpc=SVH7QQnzl8KGRLBCpBeMwucPP0I/PODBpraWQZhSjMEInTdBv+WavriZzcAY2VJAEClwQCFR4cDUkbVAaPrKv5DorUDFikTBE8I3QTmjmr8uCQjBo1pMQZL9IMH+Q6xA
lpc_rms=-17.72
offset=339
pitch_keycenter=c#5
sample=Violin2Solo_tenuto_eighth_PP_C#5.opus
</region>

<region>
hikey=c#6
hivel=127
lokey=c6
lovel=1
lpc=RySvQdX13MEdKLFB1oMuwcKwOUFit8PA0H4KQSdVcsCGKrVAmDlHvsOBHkC+0+Q/fxcDQNzk8j/oWY8/RdTqP3LAe0DJGwvAKiTrQN1sq8CInD9B3ES6wRval0FCBpDA
lpc_rms=-20.95
offset=1065
pitch_keycenter=c#6
sample=Violin2Solo_tenuto_eighth_PP_C#6.opus
</region>

<region>
hikey=E7
hivel=127
lokey=c7
lovel=1
lpc=vmInQuvTA8JzZ91BL1lowZb9fEF1mm/Ak2MlQafGQT7v29BAn2EUQc8pusGCXfbBZv0CQhncocEflHJB26lEwdYdrEDdXeHAhHFJQAXH/MBeCkJAgTMpQWqyw0BW09TA
lpc_rms=-19.06
offset=651
pitch_keycenter=C#7
sample=Violin2Solo_tenuto_eighth_PP_C#7.opus
</region>

<region>
hikey=d#4
hivel=127
lokey=d4
lovel=1
lpc=x/7yQaHLsMKgsNJCOR2Cwj1Qw0ENFo7BxtnMQRSW1MHy0KVBsApuwXMQLUFZdgTB5k8NQaFRw8C3ZbU+Y2t3v6lKn0AN4ETAP+BVv3RPlEDqqS7B29A8QXln5cCTZStA
lpc_rms=-27.13
offset=160
pitch_keycenter=d#4
sample=Violin2Solo_tenuto_eighth_PP_D#4.opus
</region>

<region>
hikey=d#5
hivel=127
lokey=d5
lovel=1
lpc=fOUlQZLw0MF17OpBCnumwZEHX0GCgS/BYf/uQNJMVsCW6OI/Ua0yvtRtM8CXbztAFvyrPzSYh8Age6ZAV1/cwOOfDUFXXhjBW24LQTeBjMCnLgy/VFfFPxA1F727bek8
lpc_rms=-25.02
offset=449
pitch_keycenter=d#5
sample=Violin2Solo_tenuto_eighth_PP_D#5.opus
</region>

<region>
hikey=d#6
hivel=127
lokey=d6
lovel=1
lpc=soSXQfLQlMH+j3NB8pupwJvqwECcJzzAAo+FQI+UK8Bm0jdAO8LXvgvnlT98AMa+tOshQBsxlb/gvNg/SCgfP16fhz88Lr2/kiKPQBr/lcGT/1lB/LbQwApMpr4o26+/
lpc_rms=-22.89
offset=228
pitch_keycenter=d#6
sample=Violin2Solo_tenuto_eighth_PP_D#6.opus
</region>

<region>
hikey=f4
hivel=127
lokey=e4
lovel=1
lpc=lraTQZWvQsLAck5CXgvswVYHWUECBQnBALW+QDzZB8E8+ExB8FYWwTdLi0D1WKTAjU2qQCV2SMAGm4dAIHCvwH+IZkCcgDLAsgoTQAl0KT2WgX28H9nQv6izxrzzIqI/
lpc_rms=-29.69
offset=200
pitch_keycenter=f4
sample=Violin2Solo_tenuto_eighth_PP_F4.opus
</region>

<region>
hikey=f5
hivel=127
lokey=e5
lovel=1
lpc=iIsPQXDUocFQGbZBjzqJwdWTHUHh3orA2OUyQJA0IMDHW4JAylyQwJqjd0DD0be/mV64v1Yovj87nO88Jy1RP9oiPb1ZLo2/PtAGQFjTsb4Xb07AoYGHQNZIKMDAr9g/
lpc_rms=-28.11
offset=1101
pitch_keycenter=f5
sample=Violin2Solo_tenuto_eighth_PP_F5.opus
</region>

<region>
hikey=f6
hivel=127
lokey=e6
lovel=1
lpc=xBa1QRmlnsE1CDhBn4ZcwO8S0kBND4w++rJXv7Sox77fX2u/QBX4vvv4ED8eGKY/dTIuP2iLgL/84Wq8GPDzv14rjUCtTbDBysJoQXHWqsA9fQ3AoRUhwDN4JMC1nEVA
lpc_rms=-29.35
offset=14477
pitch_keycenter=f6
sample=Violin2Solo_tenuto_eighth_PP_F6.opus
</region>

<region>
hivel=127
key=g3
lovel=1
lpc=at7aQcFQpsK5AdlCsYmcwtPPB0KBo4LBOOmbQfOLj8FUruxANXKVP8fueMAjd1pA2jqCPBgqa8AJ5elAvYcWwS9A4ED8MCHAkQ6QPlKtTUAKxRDB3SExQRXfFcFt9YtA
lpc_rms=-27.71
offset=1315
sample=Violin2Solo_tenuto_eighth_PP_G3.opus
</region>

<region>
hikey=g4
hivel=127
lokey=f#4
lovel=1
lpc=vHWjQePHY8I2vYxCNlJDwsHVsEEQu1rBBo1pQYZmYcGp7ilBESqWwJEQl7/lC24/d0wkQHDNGMBYDgdA/WnnwEgURUHheiTBJZO4QIlcgcA1VLNAF4/OwCi9hUBWalO/
lpc_rms=-24.39
offset=878
pitch_keycenter=g4
sample=Violin2Solo_tenuto_eighth_PP_G4.opus
</region>

<region>
hikey=g5
hivel=127
lokey=f#5
lovel=1
lpc=IQACQbZHQMF5+idBdqfpwAZcr0DDWqi/hU1GP6cZ+z+563/APQN+QB275r9iBB9APWgXv3FTTD+OmGM/+i8/wLs1c0AHmU2/hNZgPpbhH0DwoSTAaSUlQHSwRcB8YnpA
lpc_rms=-22.55
offset=1780
pitch_keycenter=g5
sample=Violin2Solo_tenuto_eighth_PP_G5.opus
</region>

<region>
hikey=g6
hivel=127
lokey=f#6
lovel=1
lpc=CY2oQYuBrMHTdXpBrGvdwPaRE0HYshvAxJTQQHEJMsEcohJBar0HwL+ickASNje/36i3P/cuDb+y94xANXylwcqwkUFBGRzBwmF+QBTOm8CQQks/js11wOJZFkHMOZ/A
lpc_rms=-25.10
offset=1135
pitch_keycenter=g6
sample=Violin2Solo_tenuto_eighth_PP_G6.opus
</region>
</group>

<group>
group_label=Group_43-84
lpc_hicc1=84
lpc_locc1=43

<region>
hikey=a3
hivel=127
lokey=g#3
lovel=1
lpc=WQ0MQc8bvMG2kOZBH9+lwffLE0Fb70LAEplAQJ21q8ADHbJA2CJnwGMKsT+wUi8/yHDavz4u4D/6xIu/+izpPlG2976YGG8/XH5Dvx9d4j/maprA+VrSQE0KncAXhOM/
lpc_rms=-17.83
offset=41
pitch_keycenter=a3
sample=Violin2Solo_tenuto_eighth_MF_A3.opus
</region>

<region>
hikey=a4
hivel=127
lokey=g#4
lovel=1
lpc=a3IYQd7Ey8HP4QBC6PrPwXmFkUEtrVrBNd8QQWNmrsA+/mVAGIQ2wJtZFj+pTkVAg9C5wAyLyUAZoYXAcC+dP4IIvz8HvyfAQ3n3Pz7nTT/cnUzA8nNNQNgKm78yQ7u8
lpc_rms=-15.40
offset=262
pitch_keycenter=a4
sample=Violin2Solo_tenuto_eighth_MF_A4.opus
</region>

<region>
hikey=a5
hivel=127
lokey=g#5
lovel=1
lpc=hS/fQEG96cCHYuBAp2QXwD62Z0DT6QfA+4dOQKazOj8S3jW+AKd7P7etOEBY7tW/jWoaQHlDJz1fgR1AqkShv8DVFUBdeOM/rfHXvxynT0AXUue8DkjYP3Xhf78YomNA
lpc_rms=-12.28
offset=203
pitch_keycenter=a5
sample=Violin2Solo_tenuto_eighth_MF_A5.opus
</region>

<region>
hikey=a6
hivel=127
lokey=g#6
lovel=1
lpc=U7mDQb/v1cA5q4RAIz7iQBY+fEDBLMG+b07IQF+1xkDSDL+/+8OdQPM3HEFpsYS/HLVSQOrqPMEBKr+/Ii2hQCLZEMF0xiPAA1t9vumE+L+hTuHAWCMHP40y5z736yjB
lpc_rms=-15.21
offset=972
pitch_keycenter=a6
sample=Violin2Solo_tenuto_eighth_MF_A6.opus
</region>

<region>
hikey=b3
hivel=127
lokey=a#3
lovel=1
lpc=G5MNQanPvcGBDelBPhOtwf1eLkEAr63A14GLQKSrgsCLb1BA3g5Jv630WsAmDrZATGKiwCDxbEDpZkW/UONCwMAun0CRZonACRJDQC5Dn7/ZqBfA+6mTQHkYXcBC5I4/
lpc_rms=-20.97
offset=779
pitch_keycenter=b3
sample=Violin2Solo_tenuto_eighth_MF_B3.opus
</region>

<region>
hikey=b4
hivel=127
lokey=a#4
lovel=1
lpc=t/ntQNhCl8Htba9BG2N+wT4fHkFDyunAIEq8QJD5oMChgK9AKurAwNtAqEATAzfA0fJLP1axKT97rca/Sjn9P+s6AMDaLcM/BdGBv+5YDUDnz4fAKN2OQOAPKMATW0k/
lpc_rms=-17.99
offset=277
pitch_keycenter=b4
sample=Violin2Solo_tenuto_eighth_MF_B4.opus
</region>

<region>
hikey=b5
hivel=127
lokey=a#5
lovel=1
lpc=ijbwQLWbsMDQisxAoCtnvts+ej9pJfk/w406QM57PL5gJQVA2nTGP6De2T9IYGy/xqu5QLCeBcBq1BlAPKMqQIaFZT3MLwFA/sL4Pyyq3T/iH48+6/AuQMRZ1z+h4Bm/
lpc_rms=-15.34
offset=241
pitch_keycenter=b5
sample=Violin2Solo_tenuto_eighth_MF_B5.opus
</region>

<region>
hikey=b6
hivel=127
lokey=a#6
lovel=1
lpc=C5BxQSzWf8B5eRdBBDmNP/fDuEDxQXlAP7e3QC9qB0ClSvNATfGrPxoXFUFUW2/A7zREwaTXfEByEwfB5bwDP+BYvMBusvy/RcCTwJ4BEMB65qnA7S22v8Sc7cDY4k1A
lpc_rms=-16.61
offset=439
pitch_keycenter=b6
sample=Violin2Solo_tenuto_eighth_MF_B6.opus
</region>

<region>
hikey=c#4
hivel=127
lokey=c4
lovel=1
lpc=nM/hQccZncJoQcFCWbOMwmSqBkLFzpvBMO+OQUrSPsGQMG5AG4KcPmo0lsDVsDdB42UnwczNCEAPM2pBR2j2wYh/CUIju8vBrcdUQamBR8Beo+XAax9LQQH3L8HFmItA
lpc_rms=-13.19
offset=551
pitch_keycenter=c#4
sample=Violin2Solo_tenuto_eighth_MF_C#4.opus
</region>

<region>
hikey=c#5
hivel=127
lokey=c5
lovel=1
lpc=W3RgQZW55sHQL/JBzRqfwQIJPEFISuHAbCmEQGUrXsBisKdA/0H3wOYatUBfO4TAoU34P8/MSz/DgIi/EpOrvz8pzUDsiQjB9k8SQSjYwsBe+K9AyQCvwFvjj0CUmIK/
lpc_rms=-10.90
offset=508
pitch_keycenter=c#5
sample=Violin2Solo_tenuto_eighth_MF_C#5.opus
</region>

<region>
hikey=c#6
hivel=127
lokey=c6
lovel=1
lpc=Rn/XQMNHocDizdxAK8z6v3y0OkAB7hQ/pAZvP6B4XD9CfQ9A/hCbPiV26z/YDYu+c/1JQJMp171zZ5E/yV3+P+pFxD3hzApA4E3DPyst+759tGZA3k+IwNc2FUAfNs2/
lpc_rms=-15.37
offset=175
pitch_keycenter=c#6
sample=Violin2Solo_tenuto_eighth_MF_C#6.opus
</region>

<region>
hikey=E7
hivel=127
lokey=c7
lovel=1
lpc=wjClQUsM98AHR05AST5fQAOHK0CEk5pACuAXQG/Fk0CQMIBAK161QBveocBDUsfBT/2NQRlBt7/0zZK/sfMUv9hmFsBROWW/ppH6vwrWIMBSOSHA8VyvQItj8kDqOAHB
lpc_rms=-16.56
offset=432
pitch_keycenter=C#7
sample=Violin2Solo_tenuto_eighth_MF_C#7.opus
</region>

<region>
hikey=d#4
hivel=127
lokey=d4
lovel=1
lpc=qd5ZQVxaF8IOEEFC8qUawsgCvUHfOH3BqwBAQS1R+sAbz4NAWt0mwIDXO0CtL/q//lU+v0i2AECYtAFArrwTwUoSVUGoRzLBezvPQKEhccBtt8s90DKsQJqj3sBmGUhA
lpc_rms=-15.93
offset=413
pitch_keycenter=d#4
sample=Violin2Solo_tenuto_eighth_MF_D#4.opus
</region>

<region>
hikey=d#5
hivel=127
lokey=d5
lovel=1
lpc=SrHBQP/1V8GrwmxBrrIewVkJt0BpSJLAmuCSQEA5ksAUEpNAfMNLwFLBbT/GAwE/z62tv3Olmj/rsK8+drCUvzBeXj90OF8+z3E4v0cU1T9CRtq/pYokP0t/aj88eA+/
lpc_rms=-17.08
offset=122
pitch_keycenter=d#5
sample=Violin2Solo_tenuto_eighth_MF_D#5.opus
</region>

<region>
hikey=d#6
hivel=127
lokey=d6
lovel=1
lpc=5HgFQU3+d8B7FVlAw5a+P+JL6D8ckZE/7nF0P0ROwz/jDKI/J4egP4u3yj+0TpI+2J4mQOZAZj/0urs/rP06PxjI8j/k5YM/EwRmPxhasMAvwkNAgrfivjkdiL+fMDg+
lpc_rms=-17.53
offset=74
pitch_keycenter=d#6
sample=Violin2Solo_tenuto_eighth_MF_D#6.opus
</region>

<region>
hikey=f4
hivel=127
lokey=e4
lovel=1
lpc=ZQ0FQWbersE0UNZBXKOhwQ+IPUHjTQzB07ADQUR61cDy73ZAiqFYv5nvsb9AFgVAWg3Bv6cNgz/kz8S+yNjFvyOdL0ChDxTAeLXMP0f5Nb/pKGq/n0ZAQDyWWcBHh9U/
lpc_rms=-21.50
offset=341
pitch_keycenter=f4
sample=Violin2Solo_tenuto_eighth_MF_F4.opus
</region>

<region>
hikey=f5
hivel=127
lokey=e5
lovel=1
lpc=jGq7QLI7PcH9iypBtBymwGbbKkCAkXm/4nFIv0warT8+KTS/7j8BP78LEr/viAk+LNSCP+tE07/JZJI/22e1Ph63qj5Aivu/W8YWQAE9Sz4FLNy/ykC0P/hIr74IgLY9
lpc_rms=-18.31
offset=37
pitch_keycenter=f5
sample=Violin2Solo_tenuto_eighth_MF_F5.opus
</region>

<region>
hikey=f6
hivel=127
lokey=e6
lovel=1
lpc=AHMiQelm2MDMDaRAVmELQBgxEEACg+4/c/skQCjOpD+w7s4/ba8VQLY/2T+e010/UO9RQLeukD8BSqo/b7Q4QP4f2L+GmorAfDHYQBjIYcB0sI0+xsaqv9hz2T5PMnW+
lpc_rms=-14.12
offset=100
pitch_keycenter=f6
sample=Violin2Solo_tenuto_eighth_MF_F6.opus
</region>

<region>
hivel=127
key=g3
lovel=1
lpc=VDpIQShSD8JYWj1C3zwawtnmqUGG4gzBEpyNQPMoucBHvRJByJwjwU577ECI53jA9XkNQPZWqb+dTXw/GFi9vnO80j0TMVS+uM9BP6FTFz6AGanAc3sVQXwI5cATLBpA
lpc_rms=-16.60
offset=224
sample=Violin2Solo_tenuto_eighth_MF_G3.opus
</region>

<region>
hikey=g4
hivel=127
lokey=f#4
lovel=1
lpc=rnoZQZKVu8EJAtZBEAaawSfETEH5TULBvwcuQXyT8cDhtqFAaMtUwO7Or76HgBtAcIs2wAPJSUBABQrApEkvv9VTD0DP+RM9vgzlvxEbAUDoYWC/VAgmvaLVKD/JruS+
lpc_rms=-17.03
offset=200
pitch_keycenter=g4
sample=Violin2Solo_tenuto_eighth_MF_G4.opus
</region>

<region>
hikey=g5
hivel=127
lokey=f#5
lovel=1
lpc=TGd5QI9wo8Cv1ZBAaLhGwBMtB0DPXqe+AyKQP8i7cr++2EI/EVwYv6GGMD9Bl/A+9O7cPp0fxrtdz4c+QlZSvxArmz8GILe9xcEPP7QbKD/UFHK/61eUP5RDkr9sB88/
lpc_rms=-16.65
offset=205
pitch_keycenter=g5
sample=Violin2Solo_tenuto_eighth_MF_G5.opus
</region>

<region>
hikey=g6
hivel=127
lokey=f#6
lovel=1
lpc=oekMQYT2usA+VqtAy9Mnve/M6z8uMjBAJ9ezP1MAkD/WH0tADNn5P0JtMUDiSrM+Ip+FQDTUTT/AKXNAKv2pwMNDZkD5ELU/CEy7v5A1QkDQdYG/6RdrPbzysT9qpeu+
lpc_rms=-16.12
offset=596
pitch_keycenter=g6
sample=Violin2Solo_tenuto_eighth_MF_G6.opus
</region>
</group>

<group>
group_label=Group_85-127
lpc_hicc1=127
lpc_locc1=85

<region>
hikey=a3
hivel=127
lokey=g#3
lovel=1
lpc=/u0LQa5UyMHTyQ9CDCsHwrPJwUF504LB0Z9GQd2UHMFUkdZADv9vwO5P6j+tpPO/RPMgQJCU+b/w/9o/0YtswLbsw0DkBOLAxj/NQO4Cc8BsH2s/VBObP5hkyr/lo1c/
lpc_rms=-16.89
offset=470
pitch_keycenter=a3
sample=Violin2Solo_tenuto_eighth_FF_A3.opus
</region>

<region>
hikey=a4
hivel=127
lokey=g#4
lovel=1
lpc=eJj/QBgdp8HIdMRBf4KBwVcl+kDdyKnArrizQH0+28CiNwhBtMsMwQy7qEB8HTW/E4svv29JtL49E1o/Fod8vfvYK7+WSps/3pkAwH/0XUDImTHArL6DPXtOsD8JJBm/
lpc_rms=-18.25
offset=419
pitch_keycenter=a4
sample=Violin2Solo_tenuto_eighth_FF_A4.opus
</region>

<region>
hikey=a5
hivel=127
lokey=g#5
lovel=1
lpc=EynHQJej18B108NA/RNfv2Qc6z69Mo4/X3HiP1cq+b9SA3ZAXPLZvmw7gr6jRdA/QTAVQOiDAcCLcOY/tg4xQGkuE8A1OCBA3a9FP/WrsD56FjU/45wJQIilAcADmWpA
lpc_rms=-14.80
offset=14
pitch_keycenter=a5
sample=Violin2Solo_tenuto_eighth_FF_A5.opus
</region>

<region>
hikey=a6
hivel=127
lokey=g#6
lovel=1
lpc=qUzOQAO0j79wSXpA8bOYvsdSPUC4uwFA+8WHP7+Iy767dgFAXRXgP8ry6T+sJY4/51YcQE5moL+r5yLA/7XwPxIr578TAAZAkEP3vxYJVj4qMqM/5cawP76iCL/E5e29
lpc_rms=-18.89
offset=492
pitch_keycenter=a6
sample=Violin2Solo_tenuto_eighth_FF_A6.opus
</region>

<region>
hikey=b3
hivel=127
lokey=a#3
lovel=1
lpc=GvAHQVAPv8FE2wBCKVncwU0zjUH+WEXBDt0wQVPwEMFX5a1AhZknwGndnT/Xvly/X71SPtRt0z9NDuu/vSgKv6/DHUBVTBPAJ8fvP2O7678E0Ns+BvPWP+PREsATQX8/
lpc_rms=-17.42
offset=34
pitch_keycenter=b3
sample=Violin2Solo_tenuto_eighth_FF_B3.opus
</region>

<region>
hikey=b4
hivel=127
lokey=a#4
lovel=1
lpc=j2+YQC9gG8F3yQpBxSqdwI5pKUB75Li/0XixP3GA9L8YVCdA1T0qwFEHyj/9pbO+xGsQP+nudr9b0p4/3oWnv3pJUj8OB9K+PUyJPTgDmz8u0rO/MwztvQ4nfT/mk7O+
lpc_rms=-20.49
offset=27
pitch_keycenter=b4
sample=Violin2Solo_tenuto_eighth_FF_B4.opus
</region>

<region>
hikey=b5
hivel=127
lokey=a#5
lovel=1
lpc=Oh7lQMuh3sCXFchALSAywCh6V0CtoOK/1NZ1QJ09HMAtyPg/JiMXPzMgBEDZljrAksSwQLlTZcAuNDBAvKxBP5LcKj+qj3G+gOYCQCewLb7dvoc/wqCTPgCuE0Af8h3A
lpc_rms=-15.16
offset=15
pitch_keycenter=b5
sample=Violin2Solo_tenuto_eighth_FF_B5.opus
</region>

<region>
hikey=b6
hivel=127
lokey=a#6
lovel=1
lpc=Wus9QacDVcDADgdBNuebvwp/k0CAZDVAlJqIQLIFQUBdSKBAyFHVPr6g20BoLqC/nN4XwYXkCECUu7nAx0tuP0zZVsCk4vy/XDhlwFNm7b9015HAlJZzPxv50sDvUe8/
lpc_rms=-19.92
offset=341
pitch_keycenter=b6
sample=Violin2Solo_tenuto_eighth_FF_B6.opus
</region>

<region>
hikey=c#4
hivel=127
lokey=c4
lovel=1
lpc=7TOrQSlUYMKaY4RC0bhIwgB64kEacoXBWn1eQX4aSMFVohhBbUrDwD9vbD2H461AkSshwHyYSMBRtTJB1zOuwR+P0kFGfq/BNjZRQXizccDGUE7AyDGSQHsEa8Dk+QZA
lpc_rms=-16.26
offset=40
pitch_keycenter=c#4
sample=Violin2Solo_tenuto_eighth_FF_C#4.opus
</region>

<region>
hikey=c#5
hivel=127
lokey=c5
lovel=1
lpc=FU1tQZoo98EsOfVBqcmkwWuBVUFXXALBYZbsQFR1JsFyLRZBBI+hwPemgD+11Qu/KmYHQE+RBsA9jtU/aK6kv3Uqkz9Lzxo9MWxhv9fOtkCA1wfBFhq8QFOsDsCunLQ/
lpc_rms=-12.61
offset=192
pitch_keycenter=c#5
sample=Violin2Solo_tenuto_eighth_FF_C#5.opus
</region>

<region>
hikey=c#6
hivel=127
lokey=c6
lovel=1
lpc=3QUXQc1s/MAdsPFAbIBPwOalfUBobBXA6XpeQLjvOr9WE5c/HKGMP/Mcfz9zh+q+xQJEQJcLmb9t9L8/3Y6ZPy/QWj/zj8u9YPgGQMEOHb3JzhVA4Ne7wMgrAECObla/
lpc_rms=-16.72
offset=29
pitch_keycenter=c#6
sample=Violin2Solo_tenuto_eighth_FF_C#6.opus
</region>

<region>
hikey=E7
hivel=127
lokey=c7
lovel=1
lpc=QCRlQSq1AEAknndAEzYKQEo2OUDmg2xA+ugMQBJaTEAPF/s/OyjcQCPNSsHzWXLB7Inhvaz5g8BJxRC/ta5iwBL36r+QyxnAZ+a2v5sngcB5uXu/dRcKQXFw1j9Ezjg+
lpc_rms=-17.19
offset=208
pitch_keycenter=C#7
sample=Violin2Solo_tenuto_eighth_FF_C#7.opus
</region>

<region>
hikey=d#4
hivel=127
lokey=d4
lovel=1
lpc=4OM2QWMaAcL1ECpCoXYMwsfOrUFGiVLB6L0JQQGzqsDJ0BRAOEmKvlZIfz856oPAf9iqQAdlgsBQsXVAaeHXwJCJDUG2WtfABYZ1QBiFGsBHgs4/zq01Py/nDsBD0o4/
lpc_rms=-17.33
offset=403
pitch_keycenter=d#4
sample=Violin2Solo_tenuto_eighth_FF_D#4.opus
</region>

<region>
hikey=d#5
hivel=127
lokey=d5
lovel=1
lpc=BZSmQLP0NcHkw0BBgJvhwH1PKUB5622/1/vnPr/WkLwdhIC9HmCePuDmMr878TI/D3Wovd3KFL9+WYk+q1fWP73BIsAJL9M/lRyNvk4TFj989Iy/GqN1P37HEz7sjRq+
lpc_rms=-18.43
offset=35
pitch_keycenter=d#5
sample=Violin2Solo_tenuto_eighth_FF_D#5.opus
</region>

<region>
hikey=d#6
hivel=127
lokey=d6
lovel=1
lpc=y9vCQA9ZnMC8xLpA/FpZwMuJlEAqqPS/2LQYQOaPlL+shuE/OC1rv0pnAECirpO/Pi8eQM4J4b9DGfk/0pF0vo+SYT+9vaK+z4XeP8lOlsBrYgRARNAAwInwjj8BPN2/
lpc_rms=-19.18
offset=12
pitch_keycenter=d#6
sample=Violin2Solo_tenuto_eighth_FF_D#6.opus
</region>

<region>
hikey=f4
hivel=127
lokey=e4
lovel=1
lpc=Vz8QQVn3wsH3SfVBRi7EwVb0cUE2BRnBrUbeQCOIlsCaG8Y/9oyBP+cAL7/bwye/ZWzCPr7KsT5K7uE/O5PXwMqUE0HYONzAnoZwQKkcCsDzrIw/VsNOPqlbjL8Jpz8/
lpc_rms=-19.29
offset=40
pitch_keycenter=f4
sample=Violin2Solo_tenuto_eighth_FF_F4.opus
</region>

<region>
hikey=f5
hivel=127
lokey=e5
lovel=1
lpc=2ey6QExdL8HzVSlBBkjywBfA1EBJ/m/A9ziEP2NTA8CBsF5AghEHwIixsT8SVS7A7eJTQPibLcA9MRVAxp6Kv8jCCz8tmRO9JcKUP74olb/jI0I/D7IsPZvayj7n25y+
lpc_rms=-19.11
offset=35
pitch_keycenter=f5
sample=Violin2Solo_tenuto_eighth_FF_F5.opus
</region>

<region>
hikey=f6
hivel=127
lokey=e6
lovel=1
lpc=lJ7NQI/g+7+xUIhA1YeAPlaPEEB37WBAqRgAQFdUcz/oXLk/jQemP4WHXD+YP7o/bTmeP0jfij8w09E/jljSPhh+AUCFHovAsKOcP0oRkr+rHp2+IGGvvrdsF8BHxWy/
lpc_rms=-18.72
offset=309
pitch_keycenter=f6
sample=Violin2Solo_tenuto_eighth_FF_F6.opus
</region>

<region>
hivel=127
key=g3
lovel=1
lpc=PqE1QdsBCcJN3URCxdMwwkbt3UF6nHzBfKRYQdF2aMFnH0FBYNnAwEHIVD7RVBBAxZm3v+FnTz/6uz8/jGd2wAt6skCl1Z/AXFKNQFNHmcCKdn1AMTqXv7WAX7+lwkU/
lpc_rms=-19.05
offset=377
sample=Violin2Solo_tenuto_eighth_FF_G3.opus
</region>

<region>
hikey=g4
hivel=127
lokey=f#4
lovel=1
lpc=sVPmQIK5hsGm7JJBX21FwW5m+0DlgeHAmVHEQFNzxsA1wtVARcqvwI1oF0Cb1Cu/75ooviuvfz/0DFC/LNU/v2PpuD+WitI+icvZv+aEIED5KArAs2yMPznNKD0a44K+
lpc_rms=-19.05
offset=39
pitch_keycenter=g4
sample=Violin2Solo_tenuto_eighth_FF_G4.opus
</region>

<region>
hikey=g5
hivel=127
lokey=f#5
lovel=1
lpc=o3tcQKrWdMBnnURAHQkWwLafCkDYR4G/oVXFP17unr/A/VI/fSpYvbRsUz7s1AI+fuHBPwWBbb9nJcs+li8zvfaGcL4F1uw+NPJxP0HwyT2Xwjm/x/ylP5jBhr9cBLE/
lpc_rms=-19.54
offset=12
pitch_keycenter=g5
sample=Violin2Solo_tenuto_eighth_FF_G5.opus
</region>

<region>
hikey=g6
hivel=127
lokey=f#6
lovel=1
lpc=CSgrQcFgwsBSi9RA6CuCv3o/yUBjBtc/+NaKQOM9ZD+NyWFAqPOgQMAITUC7PYhA8nmGQFVEa0DVEsJAMRWowPxvq0DjbgFA0cYRQOzaLj8wzLU/b3iWvolUI0D9Rdg/
lpc_rms=-17.78
offset=63
pitch_keycenter=g6
sample=Violin2Solo_tenuto_eighth_FF_G6.opus
</region>
</group>